# xmcd CD database file
#
# Track frame offsets:
#	150
#	22482
#	45120
#	70920
#	102802
#	119312
#	148105
#	171047
#
# Disc length: 2767 seconds
#
# Revision: 0
# Processed by: cddbd v1.5.1PL2 Copyright (c) Steve Scherf et al.
# Submitted via: CDex 1.60beta1
#
DISCID=6a0acd08
DTITLE=Stephane Grappelli - Stephane Grappelli and Hank Jones A Two-Fer!
DYEAR=1979
DGENRE=Jazz
TTITLE0=Thou Swell
TTITLE1=These Foolish Things
TTITLE2=September In Tne Rain
TTITLE3=You Better Go Now
TTITLE4=Hallelujah
TTITLE5=Yesterdays
TTITLE6=Mellow Grapes
TTITLE7=I'll Never Be The Same
EXTD=YEAR: 1979
EXTT0=
EXTT1=
EXTT2=
EXTT3=
EXTT4=
EXTT5=
EXTT6=
EXTT7=
PLAYORDER=
